HIERARCHY
ROOT Hips
{
	OFFSET 0.00000 0.00000 0.00000
	CHANNELS 6 Xposition Yposition Zposition Zrotation Yrotation Xrotation 
	JOINT LHipJoint
	{
		OFFSET 0 0 0
		CHANNELS 3 Zrotation Yrotation Xrotation
		JOINT LeftUpLeg
		{
			OFFSET 1.75344 -1.53157 0.77399
			CHANNELS 3 Zrotation Yrotation Xrotation
			JOINT LeftLeg
			{
				OFFSET 2.25415 -6.19323 0.00000
				CHANNELS 3 Zrotation Yrotation Xrotation
				JOINT LeftFoot
				{
					OFFSET 2.30342 -6.32861 0.00000
					CHANNELS 3 Zrotation Yrotation Xrotation
					JOINT LeftToeBase
					{
						OFFSET 0.10958 -0.30108 1.49206
						CHANNELS 3 Zrotation Yrotation Xrotation
						End Site
						{
							OFFSET 0.00000 -0.00000 0.77783
						}
					}
				}
			}
		}
	}
	JOINT RHipJoint
	{
		OFFSET 0 0 0
		CHANNELS 3 Zrotation Yrotation Xrotation
		JOINT RightUpLeg
		{
			OFFSET -1.81912 -1.53156 0.77399
			CHANNELS 3 Zrotation Yrotation Xrotation
			JOINT RightLeg
			{
				OFFSET -2.22882 -6.12365 0.00000
				CHANNELS 3 Zrotation Yrotation Xrotation
				JOINT RightFoot
				{
					OFFSET -2.21943 -6.09785 0.00000
					CHANNELS 3 Zrotation Yrotation Xrotation
					JOINT RightToeBase
					{
						OFFSET -0.18931 -0.52012 1.59379
						CHANNELS 3 Zrotation Yrotation Xrotation
						End Site
						{
							OFFSET -0.00000 -0.00000 0.84686
						}
					}
				}
			}
		}
	}
	JOINT LowerBack
	{
		OFFSET 0 0 0
		CHANNELS 3 Zrotation Yrotation Xrotation
		JOINT Spine
		{
			OFFSET -0.00200 1.66634 -0.14248
			CHANNELS 3 Zrotation Yrotation Xrotation
			JOINT Spine1
			{
				OFFSET -0.00875 1.64542 0.09514
				CHANNELS 3 Zrotation Yrotation Xrotation
				JOINT Neck
				{
					OFFSET 0 0 0
					CHANNELS 3 Zrotation Yrotation Xrotation
					JOINT Neck1
					{
						OFFSET 0.02257 1.59605 0.00839
						CHANNELS 3 Zrotation Yrotation Xrotation
						JOINT Head
						{
							OFFSET -0.10214 1.57530 -0.23335
							CHANNELS 3 Zrotation Yrotation Xrotation
							End Site
							{
								OFFSET -0.03588 1.60717 -0.08062
							}
						}
					}
				}
				JOINT LeftShoulder
				{
					OFFSET 0 0 0
					CHANNELS 3 Zrotation Yrotation Xrotation
					JOINT LeftArm
					{
						OFFSET 2.54983 1.10186 0.40078
						CHANNELS 3 Zrotation Yrotation Xrotation
						JOINT LeftForeArm
						{
							OFFSET 4.28840 -0.00000 0.00000
							CHANNELS 3 Zrotation Yrotation Xrotation
							JOINT LeftHand
							{
								OFFSET 3.06552 -0.00000 -0.00000
								CHANNELS 3 Zrotation Yrotation Xrotation
								JOINT LeftFingerBase
								{
									OFFSET 0 0 0
									CHANNELS 3 Zrotation Yrotation Xrotation
									JOINT LeftHandIndex1
									{
										OFFSET 0.75304 -0.00000 0.00000
										CHANNELS 3 Zrotation Yrotation Xrotation
										End Site
										{
											OFFSET 0.60712 -0.00000 0.00000
										}
									}
								}
								JOINT LThumb
								{
									OFFSET 0 0 0
									CHANNELS 3 Zrotation Yrotation Xrotation
									End Site
									{
										OFFSET 0.61639 -0.00000 0.61639
									}
								}
							}
						}
					}
				}
				JOINT RightShoulder
				{
					OFFSET 0 0 0
					CHANNELS 3 Zrotation Yrotation Xrotation
					JOINT RightArm
					{
						OFFSET -2.60909 1.35448 0.21802
						CHANNELS 3 Zrotation Yrotation Xrotation
						JOINT RightForeArm
						{
							OFFSET -4.52172 -0.00000 -0.00000
							CHANNELS 3 Zrotation Yrotation Xrotation
							JOINT RightHand
							{
								OFFSET -2.89140 -0.00000 0.00000
								CHANNELS 3 Zrotation Yrotation Xrotation
								JOINT RightFingerBase
								{
									OFFSET 0 0 0
									CHANNELS 3 Zrotation Yrotation Xrotation
									JOINT RightHandIndex1
									{
										OFFSET -0.68054 -0.00000 0.00000
										CHANNELS 3 Zrotation Yrotation Xrotation
										End Site
										{
											OFFSET -0.54867 -0.00000 0.00000
										}
									}
								}
								JOINT RThumb
								{
									OFFSET 0 0 0
									CHANNELS 3 Zrotation Yrotation Xrotation
									End Site
									{
										OFFSET -0.55705 -0.00000 0.55705
									}
								}
							}
						}
					}
				}
			}
		}
	}
}
MOTION
Frames: 11
Frame Time: 0.181818
0.00 0.00 0.00 0 0 0 0 0 0 -21 0 0 0 0 0 0 0 0 0 0 0 0 0 0 21 0 0 0 0 0 0 0 0 0 0 0 0 0 0 0 0 0 0 0 0 0 0 -16 0 0 21 0 0 11 0 0 0 -8 0 0 0 0 0 0 0 0 0 0 0 0 0 0 0 0 0 0 0 0 8 0 0 0 0 0 0 0 0 0 0 0 0 0 0 0 0 0
0.00 0.00 0.00 181.2350 10.3254 186.1230 0.0000 0.0000 0.0000 -21.4847 -7.5794 -18.0126 4.1663 12.3784 37.0842 2.6714 1.6203 -31.5381 2.8968 -10.5261 -30.6976 0.0000 0.0000 0.0000 23.4450 13.5176 -13.9334 -3.3682 -11.2685 33.1910 -1.5386 -8.2460 -27.6865 -0.5371 4.6959 -13.0432 1.5868 0.5943 11.5009 0.7653 1.1316 -3.2481 -0.2999 0.4819 -9.9531 -4.8037 -0.2150 -6.8788 5.3213 0.3570 -3.6030 2.5259 0.3739 0.0315 0.0000 -0.0000 0.0000 -83.5656 13.7537 26.4093 18.9991 -29.4176 -5.0304 -0.0000 -0.0000 15.9057 -4.9229 -31.6674 2.5891 -7.1250 0.0000 -0.0000 -20.4398 -0.1034 21.9200 0.0000 -0.0000 0.0000 79.6480 -11.4971 26.0838 -20.2063 30.8901 -5.6369 0.0000 0.0000 19.3350 -7.0550 -49.7838 5.3986 7.1250 -0.0000 -0.0000 59.0657 -72.6339 -42.5165
0.00 0.00 0.00 181.0420 6.7946 190.3040 0.0000 0.0000 0.0000 -19.3870 -11.0290 -32.2642 8.2457 16.2970 53.4428 3.4573 -4.4197 -34.2566 2.3005 -9.4657 -27.2633 0.0000 0.0000 0.0000 21.8934 13.2849 -29.0344 -7.4337 -15.6865 50.4962 -2.5883 -7.8939 -33.9630 -0.4482 4.2953 -11.9091 0.9482 0.2052 14.0173 1.0035 0.5677 -2.8457 0.4213 0.2537 -11.0046 -2.8729 0.3553 -9.5023 3.1578 1.7118 -8.6047 1.4942 1.2801 -1.1531 0.0000 -0.0000 0.0000 -83.2251 10.1618 33.5360 21.4645 -32.3666 -6.2968 -0.0000 -0.0000 8.8600 14.5987 -39.7159 -9.4489 -7.1250 0.0000 -0.0000 -10.6040 -10.0510 12.4886 0.0000 -0.0000 0.0000 78.1021 -4.8222 25.4929 -17.7321 27.8127 -4.4235 0.0000 0.0000 15.7589 -6.3179 -53.5948 5.0921 7.1250 -0.0000 -0.0000 71.3938 -73.7706 -54.7343
0.00 0.00 0.00 181.5360 -27.1558 187.9440 0.0000 0.0000 0.0000 -15.4943 -24.4806 -25.5532 6.3210 14.7324 46.2568 0.3769 -20.2506 -17.1663 0.3307 -3.6961 -10.2233 0.0000 0.0000 0.0000 29.4799 -10.4282 -26.9003 -5.5177 -13.9441 43.0141 -1.3708 -15.1324 -32.0767 -0.0053 0.4694 -1.2898 3.2747 3.9614 12.0192 1.1216 5.9369 -4.1553 -1.8712 2.6259 -11.0516 3.6729 7.0667 -9.7362 -8.8892 8.7825 -3.4533 -3.1282 4.0687 1.1994 -0.0000 -0.0000 0.0000 -84.2036 16.3104 32.2183 14.5616 -23.5318 -3.0487 -0.0000 -0.0000 31.4993 6.4823 -32.6067 -3.5037 -7.1250 0.0000 -0.0000 -14.2458 -1.9140 15.1847 -0.0000 -0.0000 0.0000 81.7445 15.9100 57.7172 -36.6306 45.9420 -15.9740 0.0000 0.0000 15.5097 -5.4136 -60.4003 4.7105 7.1250 -0.0000 -0.0000 95.3013 -73.8702 -78.7874
0.00 0.00 0.00 181.9820 -37.9531 185.7860 0.0000 0.0000 0.0000 -16.5273 -24.5873 -16.0357 3.0104 10.7118 31.3140 -0.9482 -17.1679 3.4002 0.7836 5.6513 15.7759 0.0000 0.0000 0.0000 30.3888 -12.4560 -18.1158 -2.9395 -10.5964 30.9305 1.3677 -22.6119 -19.6626 -0.0318 1.1504 -3.1628 3.7382 4.6712 9.4203 0.9532 6.8201 -4.8526 -2.2670 3.0353 -10.1714 6.1456 9.5620 -8.5236 -10.1586 12.4360 0.6145 -3.3572 5.8770 2.5897 0.0000 0.0000 0.0000 -83.1584 18.1815 32.6079 14.3218 -23.1929 -2.9537 -0.0000 -0.0000 37.0018 -0.2065 -30.1179 0.1036 -7.1250 0.0000 -0.0000 -17.9015 1.0957 18.4879 0.0000 0.0000 0.0000 81.3300 12.3063 58.8626 -35.5341 45.1897 -15.1910 0.0000 0.0000 17.7070 -10.7050 -58.5843 9.1646 7.1250 -0.0000 -0.0000 89.2919 -75.8262 -74.6423
0.00 0.00 0.00 180.2850 -48.2669 184.8510 0.0000 0.0000 0.0000 -18.9627 -28.6966 -5.9189 0.9082 6.0729 16.9962 0.8669 8.7950 16.8029 5.9562 14.3858 44.8057 0.0000 0.0000 0.0000 28.8954 -2.2455 -4.8644 -1.1869 -6.9137 19.4600 3.9284 -35.0530 -29.0340 -4.1384 -12.3423 36.9539 2.7442 5.2245 7.4965 -0.0522 7.2770 -4.9989 -2.6668 3.3331 -9.1538 9.2508 12.4984 -8.3558 -11.2128 16.6397 5.3518 -3.5976 7.8781 4.6752 0.0000 0.0000 0.0000 -82.1433 17.8908 31.4455 13.9173 -22.6164 -2.7962 -0.0000 -0.0000 38.5649 -11.0393 -29.5220 5.4911 -7.1250 0.0000 -0.0000 -23.7776 2.0333 25.2246 0.0000 0.0000 0.0000 81.8716 7.9925 60.5991 -32.2221 42.7236 -12.8913 0.0000 0.0000 20.8782 -10.9126 -58.2389 9.3095 7.1250 -0.0000 -0.0000 87.9433 -75.9251 -73.3700
0.00 0.00 0.00 178.0100 -53.6848 186.2110 0.0000 0.0000 0.0000 -21.4370 -36.5699 -0.6431 0.6248 5.0581 14.0743 -0.8912 18.6521 2.5440 4.7308 13.0741 39.6464 0.0000 0.0000 0.0000 28.0027 6.1766 0.8519 -0.8708 -5.9499 16.6391 -3.3160 -24.2236 -48.8233 -9.5540 -17.1513 57.9872 1.9819 5.5224 6.3520 -0.8584 7.4915 -5.1680 -3.0079 3.4756 -8.6399 10.6873 13.7780 -8.1175 -11.7384 18.5371 7.7371 -3.6637 8.7622 5.7496 -0.0000 -0.0000 0.0000 -81.2600 17.8748 32.8223 14.1060 -22.8861 -2.8692 -0.0000 -0.0000 37.7098 -15.0535 -26.9014 6.9381 -7.1250 0.0000 -0.0000 -26.0967 4.3845 27.0678 -0.0000 -0.0000 0.0000 82.2574 5.1741 60.6092 -31.0774 41.7991 -12.1214 0.0000 0.0000 22.7740 -13.3112 -58.3099 11.3826 7.1250 -0.0000 -0.0000 88.6998 -76.7407 -75.0387
0.00 0.00 0.00 161.8960 -77.3619 204.1230 0.0000 0.0000 0.0000 -24.7077 -28.7437 -4.4022 0.8315 5.8175 16.2557 -1.7488 22.8490 -12.2864 7.0262 15.3540 48.9735 0.0000 0.0000 0.0000 25.2285 16.9768 -1.1479 -1.0468 -6.5065 18.2614 4.2777 -34.0126 -19.2779 -4.2748 -12.5174 37.5878 3.4301 4.1816 2.8856 -2.4453 5.5737 -6.1313 -4.9763 2.4132 -7.4709 14.1975 17.4277 -4.6644 -13.5161 24.2166 11.0689 -3.9244 11.5469 7.5343 0.0000 -0.0000 0.0000 -82.2160 13.9058 35.2829 13.5507 -22.0888 -2.6568 -0.0000 -0.0000 41.0087 -28.1745 -24.8249 12.6738 -7.1250 0.0000 -0.0000 -32.6619 4.8799 36.5050 0.0000 -0.0000 0.0000 82.2376 -5.4443 56.0634 -30.1019 40.9806 -11.4764 0.0000 0.0000 22.6870 -11.9631 -52.9310 9.5959 7.1250 -0.0000 -0.0000 66.5605 -75.6941 -52.4346
0.00 0.00 0.00 6.5759 -50.2135 356.0660 0.0000 0.0000 0.0000 -26.4195 -17.0152 -1.2011 0.7048 5.3657 14.9546 -2.1056 27.1067 1.8848 1.8655 8.5801 24.4903 0.0000 0.0000 0.0000 22.4347 21.8281 -1.0971 -1.2252 -7.0202 19.7754 3.6042 -33.0308 -1.6765 -1.4973 -7.7294 21.8951 1.6885 -0.0504 6.1718 -0.1471 0.0644 -5.2578 -1.1108 -0.0950 -9.0252 9.7590 14.5038 -6.7703 -9.0104 20.2729 16.4744 -2.3473 9.5957 8.1304 -0.0000 -0.0000 0.0000 -84.8675 8.5853 38.7339 15.2068 -24.4334 -3.3110 -0.0000 -0.0000 35.2894 -18.7128 -29.9681 9.6036 -7.1250 0.0000 -0.0000 -27.5999 1.3592 30.7962 -0.0000 -0.0000 0.0000 80.7383 -19.6894 39.4473 -21.6804 32.6140 -6.4127 0.0000 0.0000 20.7861 -6.8194 -53.4414 5.4868 7.1250 -0.0000 -0.0000 70.6582 -73.9131 -54.2152
0.00 0.00 0.00 -0.3847 9.6338 356.5310 0.0000 0.0000 0.0000 -24.7260 -16.0418 -4.3381 2.7483 10.2761 29.8755 0.5557 6.1703 13.3300 0.8696 -5.9457 -16.6270 0.0000 0.0000 0.0000 25.5620 8.5107 -4.0545 -2.1409 -9.1537 26.2772 1.7214 -26.7226 5.6226 -1.6940 -8.1974 23.3151 1.7956 0.8852 7.2423 0.4244 1.4303 -4.7030 -0.7717 0.6015 -9.0192 -6.8487 -1.8599 -5.9799 3.3967 -2.1897 11.9672 2.0422 -1.1779 4.6832 -0.0000 -0.0000 0.0000 -76.1182 1.0623 28.5313 15.9841 -25.4990 -3.6391 -0.0000 -0.0000 35.3165 -13.9437 -30.3054 7.1412 -7.1250 0.0000 -0.0000 -25.2092 1.2649 27.4792 -0.0000 -0.0000 0.0000 74.2857 -25.3562 37.9642 -16.2904 25.9128 -3.7720 0.0000 0.0000 22.0244 21.6124 -52.3223 -17.4094 7.1250 -0.0000 -0.0000 83.5765 -64.0332 -53.9649
0.00 0.00 0.00 -2.8424 25.5593 358.6620 0.0000 0.0000 0.0000 -20.6921 -19.1197 -16.1005 6.8678 15.2196 48.3727 3.1077 -14.1203 -31.9667 2.9947 -10.6864 -31.2295 0.0000 0.0000 0.0000 27.2877 -2.7798 -18.4181 -6.2581 -14.6739 46.0091 -2.0429 -8.2965 -31.0163 -0.3299 3.6914 -10.2099 2.5726 1.9706 9.3403 0.4273 3.0459 -4.4854 -1.5274 1.3203 -9.9426 -11.6257 -8.2177 -2.1090 7.6013 -10.8222 1.6680 3.7908 -5.3835 1.8777 -0.0000 0.0000 0.0000 -72.5235 -0.3541 4.6313 18.3275 -28.5745 -4.7049 -0.0000 -0.0000 27.5877 -3.5071 -33.6232 1.9437 -7.1250 0.0000 -0.0000 -19.6547 -2.0205 21.6321 -0.0000 0.0000 0.0000 66.2628 -16.2195 24.4589 -13.2513 21.6544 -2.5453 0.0000 0.0000 44.7909 7.0748 -59.3586 -6.0950 7.1250 -0.0000 -0.0000 93.1263 -69.8990 -71.8994
